<?xml version="1.0" encoding="utf-8"?>
<!-- Generator: Adobe Illustrator 25.2.1, SVG Export Plug-In . SVG Version: 6.00 Build 0)  -->
<svg version="1.1" id="Слой_1" xmlns="http://www.w3.org/2000/svg" xmlns:xlink="http://www.w3.org/1999/xlink" x="0px" y="0px"
	 viewBox="0 0 333.7 140.7" style="enable-background:new 0 0 333.7 140.7;" xml:space="preserve">
<style type="text/css">
	.st0{display:none;fill:#FFFFFF;stroke:#000000;stroke-miterlimit:10;}
	.st1{display:none;}
	.st2{display:inline;fill:#263654;stroke:#FFFFFF;stroke-width:2;stroke-miterlimit:10;}
	.st3{fill:#FFFFFF;}
</style>
<path class="st0" d="M545.8,307"/>
<path class="st0" d="M485.8,505"/>
<g class="st1">
	<path class="st2" d="M1005.6,103.6h-14v-8.4h37.7v8.4h-14v38h-9.8v-38H1005.6z"/>
	<path class="st2" d="M1035.4,95.3h9.7v17.9h18.4V95.3h9.7v46.4h-9.7v-19.5H1045v19.5h-9.7L1035.4,95.3L1035.4,95.3z"/>
	<path class="st2" d="M1082.6,95.3h31.7v8.3h-22v10.1h20.7v8.3h-20.7v11.4h23.3l-1,8.3h-32V95.3z"/>
	<path class="st2" d="M1122.5,95.3h11.6l11.6,34.6l11.9-34.6h11.3v46.4h-8.9v-31l-10.6,30.9h-7.5l-10.7-30.9v30.9h-8.7L1122.5,95.3
		L1122.5,95.3z"/>
	<path class="st2" d="M1178.4,95.3h31.7v8.3h-22v10.1h20.7v8.3h-20.7v11.4h23.3l-1,8.3h-32V95.3z"/>
</g>
<g>
	<g>
		<path class="st3" d="M3.4,124.6v-18.5h7.9c1.8,0,2.5,0.9,2.5,2.7v7.3c0,1.3-0.6,2.1-1.9,2.2l2.2,6.2h-2.2l-2.2-6.2H5.5v6.2H3.4z
			 M11.7,116.3v-8H5.5v8H11.7z"/>
		<path class="st3" d="M19,122v-8.5c0-1.8,0.8-2.4,2.4-2.4h5c1.6,0,2.3,0.7,2.3,2.4v5.4h-7.5v3.6h5.4v-1.4h2.1v1
			c0,1.8-0.6,2.5-2.4,2.5h-4.7C19.8,124.6,19,123.8,19,122z M21.2,113.1v3.9h5.4v-3.9H21.2z"/>
		<path class="st3" d="M33.7,122.2V121h2.2v1.5h4.8v-2.8l-5.7-2.1c-0.9-0.4-1.2-0.8-1.2-2v-2.2c0-1.5,0.5-2.3,2.2-2.3h4.7
			c1.6,0,2.1,0.6,2.1,1.8v1.6h-2.1v-1.4h-4.8v2.6l5.6,2c1.2,0.5,1.3,0.7,1.3,2.1v2.5c0,1.2-0.6,2.2-2.2,2.2h-4.5
			C34.4,124.6,33.7,123.8,33.7,122.2z"/>
		<path class="st3" d="M47.9,122v-8.5c0-1.8,0.8-2.4,2.4-2.4h5c1.6,0,2.3,0.7,2.3,2.4v5.4h-7.5v3.6h5.4v-1.4h2.1v1
			c0,1.8-0.6,2.5-2.4,2.5h-4.7C48.7,124.6,47.9,123.8,47.9,122z M50.1,113.1v3.9h5.4v-3.9H50.1z"/>
		<path class="st3" d="M62.7,122.1v-8.6c0-1.7,1-2.5,3-2.5c2.1,0,4.3,0.7,4.6,1l0.1-0.9h2v13.5h-2l-0.1-0.9c-0.3,0.3-2.4,1-4.6,1
			C63.7,124.7,62.7,123.7,62.7,122.1z M70.2,122.5v-9.3h-5.4v9.3H70.2z"/>
		<path class="st3" d="M77.7,111.1h2l0.1,1.1c0.5-0.3,2.3-1.2,4.3-1.2l-0.2,2.3h-4.1v11.3h-2.2V111.1z"/>
		<path class="st3" d="M88.3,122.1v-8.9c0-1.6,0.9-2.1,2.2-2.1h5.2c1.6,0,2.1,1,2.1,2.7v1.5h-2.1v-2.2h-5.2v9.3h5.2v-2.7h2.1v2
			c0,1.5-0.7,2.8-2.4,2.8h-4.6C89.3,124.6,88.3,123.8,88.3,122.1z"/>
		<path class="st3" d="M112.4,124.6h-2.2v-11.4h-5.1v11.4H103v-19h2.2v6.6c0.8-0.3,2.7-1.1,4.7-1.1c1.7,0,2.5,0.8,2.5,2.6V124.6z"/>
		<path class="st3" d="M125.7,122.1v-8.6c0-1.7,1-2.5,3-2.5c2.1,0,4.3,0.7,4.6,1l0.1-0.9h2v13.5h-2l-0.1-0.9c-0.3,0.3-2.4,1-4.6,1
			C126.7,124.7,125.7,123.7,125.7,122.1z M133.2,122.5v-9.3h-5.4v9.3H133.2z"/>
		<path class="st3" d="M140.7,111.1h2l0.1,1c0.8-0.3,2.7-1.1,4.7-1.1c1.7,0,2.5,0.8,2.5,2.6v11H148v-11.4h-5.1v11.4h-2.2V111.1z"/>
		<path class="st3" d="M155.3,122.1v-8.6c0-1.7,1-2.5,3-2.5c2.1,0,4.3,0.7,4.6,1v-6.4h2.2v19h-2l-0.1-0.9c-0.3,0.3-2.4,1-4.6,1
			C156.3,124.7,155.3,123.7,155.3,122.1z M162.8,122.5v-9.3h-5.4v9.3H162.8z"/>
		<path class="st3" d="M178.7,106.1h8.3c1.7,0,2.2,1.2,2.2,3.1v12.5c0,1.4-0.8,2.9-2.6,2.9h-7.8V106.1z M187.1,122.4v-14.2h-6.2
			v14.2H187.1z"/>
		<path class="st3" d="M194.5,122v-8.5c0-1.8,0.8-2.4,2.4-2.4h5c1.6,0,2.3,0.7,2.3,2.4v5.4h-7.5v3.6h5.4v-1.4h2.1v1
			c0,1.8-0.6,2.5-2.4,2.5H197C195.3,124.6,194.5,123.8,194.5,122z M196.6,113.1v3.9h5.4v-3.9H196.6z"/>
		<path class="st3" d="M208.1,111.1h2.3l3.2,11.3h0.1l3.2-11.3h2.3l-4.2,13.5h-2.8L208.1,111.1z"/>
		<path class="st3" d="M223.3,122v-8.5c0-1.8,0.8-2.4,2.4-2.4h5c1.6,0,2.3,0.7,2.3,2.4v5.4h-7.5v3.6h5.4v-1.4h2.1v1
			c0,1.8-0.6,2.5-2.4,2.5h-4.7C224.1,124.6,223.3,123.8,223.3,122z M225.4,113.1v3.9h5.4v-3.9H225.4z"/>
		<path class="st3" d="M238.3,105.5h2.2v19h-2.2V105.5z"/>
		<path class="st3" d="M245.8,122.1v-8.9c0-1.6,0.9-2.1,2.2-2.1h5.3c1.7,0,2.2,1,2.2,2.7v8.2c0,1.5-0.7,2.6-2.5,2.6h-4.8
			C246.8,124.6,245.8,123.8,245.8,122.1z M253.4,122.5v-9.3h-5.4v9.3H253.4z"/>
		<path class="st3" d="M260.7,111.1h2l0.1,0.9c0.3-0.3,2.5-1,4.6-1c2,0,3,0.9,3,2.5v8.6c0,1.6-1,2.6-3,2.6c-2.1,0-4.3-0.8-4.6-1v5.4
			h-2.2V111.1z M268.3,122.5v-9.3h-5.4v9.3H268.3z"/>
		<path class="st3" d="M275.7,111.1h2l0.1,1c0.7-0.3,2.5-1.1,4.5-1.1c1.1,0,1.8,0.4,2.1,1.2c0.9-0.5,2.7-1.2,4.7-1.2
			c1.7,0,2.5,0.7,2.5,2.6v11h-2.2v-11.4h-4.7v11.4h-2.2v-11.4h-4.7v11.4h-2.2V111.1z"/>
		<path class="st3" d="M296.8,122v-8.5c0-1.8,0.8-2.4,2.4-2.4h5c1.6,0,2.3,0.7,2.3,2.4v5.4h-7.5v3.6h5.4v-1.4h2.1v1
			c0,1.8-0.6,2.5-2.4,2.5h-4.7C297.5,124.6,296.8,123.8,296.8,122z M298.9,113.1v3.9h5.4v-3.9H298.9z"/>
		<path class="st3" d="M311.6,111.1h2l0.1,1c0.8-0.3,2.7-1.1,4.7-1.1c1.7,0,2.5,0.8,2.5,2.6v11h-2.2v-11.4h-5.1v11.4h-2.2V111.1z"/>
		<path class="st3" d="M326.3,121.9V108h2.2v3.1h3.6l-0.2,2h-3.4v9.3h3.4v2.1h-3.2C326.8,124.6,326.3,123.6,326.3,121.9z"/>
	</g>
	<g>
		<path class="st3" d="M11.7,63.7h-8V39.2v-6.7h28.2c18.6,0.1,27.8,9,27.8,26.9c0,17.9-9.3,26.8-28,26.8l-28,0v-8.9h28.1
			c13.4,0,20.1-6,20.1-17.9c0-11.9-6.7-17.9-20.1-17.8l-15.9,0h-4.1V63.7z"/>
		<path class="st3" d="M124.1,32.4h8.9v26.8c0,17.9-10.4,26.8-31.2,26.9c-20.8,0-31.2-8.9-31.2-26.8V32.4l8.9-0.1v26.8
			c0,11.9,7.5,17.9,22.4,17.9c14.9,0,22.4-5.9,22.4-17.8v-8.9v-4.5L124.1,32.4z"/>
		<path class="st3" d="M201,32.5c3,0,4.5,1.8,4.5,5.4v12.7V86h-8.9V50.4l-13.5,26.7l-3.7,6.3c-1.4,1.5-3.1,2.4-5.2,2.7
			c-2.1-0.2-3.8-1.1-5.2-2.7l-3.8-6.2l-13.5-26.7V86h-8.9V50.6V37.9c0-3.6,1.5-5.4,4.5-5.4h2.3c1.5,0.1,3.1,1.8,4.7,5.1l17.7,35.1
			c0.9,1.7,1.6,2.5,2.2,2.5c0.5-0.1,1.2-0.9,2-2.5L194,37.6c1.6-3.2,3.1-4.9,4.7-5.1H201z"/>
		<path class="st3" d="M248.8,35.3c-2.3-4-8-4-10.3,0L211,86.2h65.3L248.8,35.3z M240.7,48.4c1.3-2.3,4.7-2.3,6,0l15.9,29.5h-37.9
			L240.7,48.4z"/>
		<path class="st3" d="M322.7,32.4v38.6l-32-36.5c-1.2-1.3-2.9-2.1-4.7-2.1l0,0c-3.4,0-6.2,2.8-6.2,6.2V86h9V47.4l32,36.5
			c1.2,1.3,2.9,2.1,4.7,2.1l0,0c3.4,0,6.2-2.8,6.2-6.2V32.4H322.7z"/>
	</g>
</g>
</svg>
